<svg width="1600" height="900" viewBox="0 0 1600 900" fill="none" xmlns="http://www.w3.org/2000/svg">
  <rect width="1600" height="900" fill="#060B13"/>
  <rect x="56" y="56" width="1488" height="788" rx="32" fill="url(#bg)" stroke="#24354A"/>
  <path d="M56 260H1544" stroke="#1C2C40" stroke-width="2"/>
  <path d="M460 56V844" stroke="#1C2C40" stroke-width="2"/>
  <circle cx="132" cy="158" r="10" fill="#8EF7FF"/>
  <circle cx="168" cy="158" r="10" fill="#37E5CB"/>
  <circle cx="204" cy="158" r="10" fill="#818CF8"/>
  <text x="112" y="374" fill="#8EF7FF" font-family="Arial, sans-serif" font-size="22" letter-spacing="6">SIGNAL LAYER</text>
  <text x="112" y="462" fill="#ECF7FF" font-family="Arial, sans-serif" font-size="96" font-weight="700">Real AI news.</text>
  <text x="112" y="564" fill="#ECF7FF" font-family="Arial, sans-serif" font-size="96" font-weight="700">Sharper summaries.</text>
  <text x="112" y="646" fill="#94AFC5" font-family="Arial, sans-serif" font-size="34">Independent reporting on models, platforms, capital, and infrastructure.</text>
  <rect x="564" y="158" width="900" height="584" rx="28" fill="#0D1625" stroke="#2A3E57"/>
  <rect x="620" y="214" width="316" height="206" rx="18" fill="#142338"/>
  <rect x="968" y="214" width="440" height="88" rx="18" fill="#122338"/>
  <rect x="968" y="332" width="440" height="88" rx="18" fill="#122338"/>
  <rect x="620" y="452" width="788" height="72" rx="18" fill="#122338"/>
  <rect x="620" y="548" width="788" height="72" rx="18" fill="#122338"/>
  <rect x="620" y="644" width="512" height="52" rx="18" fill="#122338"/>
  <path d="M684 362L746 302L808 344L884 258" stroke="#37E5CB" stroke-width="8" stroke-linecap="round" stroke-linejoin="round"/>
  <circle cx="684" cy="362" r="10" fill="#8EF7FF"/>
  <circle cx="746" cy="302" r="10" fill="#8EF7FF"/>
  <circle cx="808" cy="344" r="10" fill="#8EF7FF"/>
  <circle cx="884" cy="258" r="10" fill="#8EF7FF"/>
  <defs>
    <linearGradient id="bg" x1="56" y1="56" x2="1544" y2="844" gradientUnits="userSpaceOnUse">
      <stop stop-color="#09111C"/>
      <stop offset="1" stop-color="#0E1829"/>
    </linearGradient>
  </defs>
</svg>
